<svg xmlns="http://www.w3.org/2000/svg" viewBox="-94 -293 1024 1024">
  <rect x="-94" y="-293" width="1024" height="1024" fill="#1B3A5C"/>
  <path fill-rule="evenodd" clip-rule="evenodd" d="M418.188 79C526.188 79 646.188 49 708.188 33C748.188 16 776.188 4 798.188 0C824.188 0 838.188 20 836.188 46C834.188 68 822.188 86 808.188 98C778.188 114 746.188 126 714.188 136C652.188 156 612.188 194 610.188 256C610.188 288 624.188 312 642.188 328C658.188 344 678.188 354 694.188 360C708.188 366 714.188 380 714.188 398C714.188 414 714.188 426 714.188 432C714.188 440 122.188 440 122.188 432C122.188 426 122.188 414 122.188 398C122.188 380 128.188 366 142.188 360C158.188 354 178.188 344 194.188 328C212.188 312 226.188 288 226.188 256C224.188 194 184.188 156 122.188 136C90.1885 126 58.1885 114 28.1885 98C14.1885 86 2.18847 68 0.188473 46C-1.81153 20 12.1885 0 38.1885 0C60.1885 4 88.1885 16 128.188 33C190.188 49 310.188 79 418.188 79ZM387.188 196H449.188C469.188 196 485.188 212 485.188 232V320C485.188 340 469.188 356 449.188 356H387.188C367.188 356 351.188 340 351.188 320V232C351.188 212 367.188 196 387.188 196Z" fill="white"/>
</svg>
